<?xml version="1.0" encoding="UTF-8"?>
<svg xmlns="http://www.w3.org/2000/svg" xmlns:xlink="http://www.w3.org/1999/xlink" width="2675.36pt" height="756.14pt" viewBox="0 0 2675.36 756.14" version="1.1">
<defs>
<clipPath id="clip1">
  <path d="M 0 0 L 2675.359375 0 L 2675.359375 756.140625 L 0 756.140625 Z M 0 0 "/>
</clipPath>
</defs>
<g id="surface1">
<g clip-path="url(#clip1)" clip-rule="nonzero">
<path style=" stroke:none;fill-rule:nonzero;fill:rgb(13.699341%,12.199402%,12.5%);fill-opacity:1;" d="M 1665.339844 682.097656 L 1463.441406 682.097656 L 1463.441406 220.539063 L 1385.199219 220.539063 L 1385.199219 756.136719 L 1665.339844 756.136719 Z M 2348.488281 69.839844 C 2359.78125 69.839844 2375.789063 74.828125 2397.320313 85.59375 C 2429.621094 99.242188 2451.671875 105.808594 2464.539063 105.808594 C 2504.96875 105.808594 2537 83.492188 2559.839844 37.542969 L 2513.371094 0 C 2497.089844 25.730469 2481.859375 38.59375 2467.949219 38.59375 C 2460.589844 38.59375 2444.320313 31.765625 2419.640625 19.953125 C 2399.449219 8.851563 2377.011719 2.480469 2354 1.3125 C 2345.941406 1.046875 2337.878906 2.019531 2330.109375 4.199219 C 2322.761719 5.777344 2316.460938 8.660156 2309.628906 12.601563 C 2303.328125 16.539063 2296.5 22.050781 2290.460938 28.878906 C 2283.378906 35.179688 2277.339844 42.792969 2270.511719 53.035156 L 2307.53125 106.855469 C 2321.179688 81.914063 2335.621094 69.574219 2348.488281 69.574219 Z M 124.183594 416.402344 L 297.992188 755.875 L 326.871094 755.875 L 498.054688 419.289063 L 545.3125 756.136719 L 623.289063 756.136719 L 543.472656 220.539063 L 516.167969 220.539063 L 312.433594 624.335938 L 106.597656 220.804688 L 79.289063 220.804688 L 0 755.875 L 76.140625 755.875 L 124.183594 416.136719 Z M 1170.179688 681.574219 L 923.382813 681.574219 L 923.382813 505.667969 L 1170.179688 505.667969 L 1170.179688 430.578125 L 923.382813 430.578125 L 923.382813 294.582031 L 1172.800781 294.582031 L 1172.800781 220.804688 L 846.453125 220.804688 L 846.453125 756.140625 L 1169.910156 756.140625 L 1169.910156 681.574219 Z M 2507.859375 587.585938 L 2591.078125 755.875 L 2675.359375 755.875 L 2418.070313 220.804688 L 2389.710938 220.804688 L 2128.738281 755.875 L 2214.851563 755.875 L 2297.03125 587.84375 L 2507.859375 587.84375 Z M 2403.628906 369.667969 L 2473.730469 514.070313 L 2332.738281 514.070313 Z M 1862.511719 755.613281 L 1940.230469 755.613281 L 1940.230469 220.542969 L 1862.511719 220.542969 L 1862.511719 755.613281 "/>
</g>
</g>
</svg>
